<?xml version="1.0" encoding="utf-8"?>
<!-- Generator: Adobe Illustrator 24.0.2, SVG Export Plug-In . SVG Version: 6.00 Build 0)  -->
<svg version="1.1" id="Layer_1" xmlns="http://www.w3.org/2000/svg" xmlns:xlink="http://www.w3.org/1999/xlink" x="0px" y="0px"
	 viewBox="0 0 850.39 850.39" style="enable-background:new 0 0 850.39 850.39;" xml:space="preserve">
<style type="text/css">
	.st0{fill:#415263;}
	.st1{fill:#00A551;}
	.st2{fill:#231F20;}
</style>
<g>
	<path class="st2" d="M458.75,453.4c-0.12,0.47-0.24,0.95-0.38,1.42C458.48,454.26,458.61,453.79,458.75,453.4z"/>
	<g>
		<path class="st0" d="M335.67,431.37v24.34H325.1v-66.05h29.25c6.29,0,11.54,1.98,15.76,5.94c4.28,3.96,6.42,8.93,6.42,14.91
			c0,5.98-2.14,10.94-6.42,14.91c-4.21,3.96-9.47,5.94-15.76,5.94H335.67z M354.35,399.48h-18.68v22.08h18.68
			c3.14,0,5.79-1.05,7.93-3.16c2.14-2.11,3.21-4.73,3.21-7.88c0-3.14-1.07-5.77-3.21-7.88C360.14,400.53,357.5,399.48,354.35,399.48
			z"/>
		<path class="st0" d="M399.08,405.42c6.35,0,11.79,2.17,16.32,6.51v-5.28h9.81v49.06h-9.81v-5.28c-4.53,4.34-9.97,6.51-16.32,6.51
			c-6.86,0-12.61-2.45-17.27-7.36c-4.59-4.84-6.89-10.98-6.89-18.4c0-7.42,2.3-13.55,6.89-18.4
			C386.46,407.88,392.22,405.42,399.08,405.42z M400.11,415.24c-4.21,0-7.77,1.54-10.66,4.62c-2.89,2.96-4.34,6.73-4.34,11.32
			c0,4.53,1.45,8.34,4.34,11.42c2.96,3.02,6.51,4.53,10.66,4.53c4.28,0,7.86-1.51,10.76-4.53c2.89-3.08,4.34-6.89,4.34-11.42
			c0-4.59-1.45-8.36-4.34-11.32C407.98,416.78,404.39,415.24,400.11,415.24z"/>
		<path class="st0" d="M441.06,455.71h-9.81v-70.76h9.81V455.71z"/>
		<path class="st0" d="M456.91,455.71h-9.81v-49.06h9.81v6.23c3.4-4.97,8.4-7.45,15-7.45c3.4,0,6.48,0.77,9.25,2.31
			c2.77,1.54,5,3.67,6.7,6.37c0.76-1.19,1.67-2.39,2.74-3.59c1.32-1.32,3.24-2.5,5.76-3.54c2.52-1.04,5.19-1.56,8.02-1.56
			c5.6,0,10.22,1.73,13.87,5.19c3.71,3.52,5.57,7.86,5.57,13.02v32.08h-9.81v-29.34c0-3.27-1.1-6.02-3.3-8.26
			c-2.2-2.23-4.94-3.35-8.21-3.35c-3.46,0-6.35,1.13-8.68,3.4c-2.26,2.14-3.4,4.91-3.4,8.3v29.25h-9.81v-29.34
			c0-3.27-1.1-6.02-3.3-8.26c-2.2-2.23-4.94-3.35-8.21-3.35c-3.46,0-6.35,1.13-8.68,3.4c-2.33,2.14-3.49,4.91-3.49,8.3V455.71z"/>
		<path class="st1" d="M560.41,455.71h-10.57v-66.05h10.57v27.74h35.76v-27.74h10.66v66.05h-10.66v-28.49h-35.76V455.71z"/>
		<path class="st1" d="M614,389.67h30.19c6.29,0,11.54,1.98,15.76,5.94c4.28,3.96,6.42,8.93,6.42,14.91c0,4.34-1.2,8.22-3.59,11.65
			c-2.39,3.43-5.57,5.93-9.53,7.5l15.66,26.04h-11.89l-14.72-24.34h-17.74v24.34H614V389.67z M644.19,399.48h-19.63v22.08h19.63
			c3.14,0,5.79-1.05,7.93-3.16c2.14-2.11,3.21-4.73,3.21-7.88c0-3.14-1.07-5.77-3.21-7.88
			C649.98,400.53,647.34,399.48,644.19,399.48z"/>
	</g>
	<path class="st2" d="M415.66,401.22c-0.12,0.47-0.24,0.95-0.38,1.42C415.4,402.08,415.52,401.61,415.66,401.22z"/>
	<path class="st1" d="M304.57,412.31c-0.09,0.38-0.2,0.76-0.31,1.13c0,0.01-0.01,0.02-0.01,0.03c-0.19,0.66-0.4,1.33-0.62,1.99
		c-0.67,1.27-1.33-0.05-1.78-1.42c-0.16-0.67-0.34-1.34-0.53-2c-0.01-0.02-0.01-0.03-0.01-0.05c0-0.01-0.01-0.03-0.01-0.04
		c-0.5-1.81-1.07-3.58-1.68-5.28c-0.81-2.25-1.88-4.63-4-5.76c-3.1-1.66-7.24,0.29-9.04,3.37c-1.79,3.09-1.74,6.86-1.19,10.35
		c0.55,3.49,1.56,6.93,1.5,10.47c-0.02,1.19-0.36,2.65-1.52,2.98c-0.44,0.12-0.88,0.04-1.3-0.14c0,0-0.01,0-0.03-0.01
		c-0.93-0.62-2.06-1-3.02-1.63c-5.14-3.39-9.16-8.44-12.43-13.58c-3.61-5.67-6.78-11.59-9.84-17.57c-1.54-3-2.87-6.19-4.59-9.09
		c-1.27-2.14-2.97-4.13-5.72-3.94c-0.52,0.03-1.03,0.15-1.5,0.38c-1.51,0.76-2.15,2.65-2.1,4.35c0.13,4.66,2.36,9.28,4.21,13.47
		c1.95,4.4,4.07,8.73,5.79,13.23c0.47,1.24,0.39,3.05-1.25,2.33c-0.94-0.41-1.68-1.89-2.17-2.72c-3.25-5.4-6.1-11.03-8.93-16.66
		c-1.32-2.64-2.63-5.3-4.05-7.89c-1.02-1.87-2.09-3.86-3.6-5.39c-1.39-1.41-3.57-2.57-5.44-1.43c-5.25,3.19-2.11,10.68-0.36,14.94
		c1.21,2.93,2.7,5.72,4.09,8.56c2.83,5.77,5.77,11.47,8.66,17.2c0.58,1.16,0.06,2.28-1.32,1.83c-1-0.32-1.43-1.65-1.92-2.46
		c-4.01-6.69-7.78-13.49-12.24-19.9c-2.65-3.8-7.15-11.77-11.99-5.26c-1.85,2.49-0.98,5.38,0.17,7.88
		c2.5,5.41,12.52,22.38,14.78,25.57c0.04,0.05,0.06,0.08,0.1,0.13c0.42,0.59,0.85,1.17,1.22,1.8c0.03,0.04,0.06,0.1,0.09,0.15
		c0.07,0.12,0.13,0.23,0.18,0.34c0.86,1.52,1.26,2.47,0.41,2.83c-0.04,0.02-0.08,0.04-0.14,0.04c-0.02,0-0.03,0.01-0.05,0.01
		c-0.89,0.15-1.99-1.46-2.56-2.01c-0.92-0.91-1.8-1.86-2.65-2.83c-3.16-3.6-5.95-7.5-9.23-11c-1.32-1.41-3.22-3.84-5.1-4.4
		c-1.99-0.6-3.77,0.54-4.75,2.23c-2.75,4.72,2.18,11.44,4.85,15.09c4.49,6.16,8.85,12.39,13.5,18.43c0,0,0.03,0.04,0.08,0.11
		c0.05,0.07,0.1,0.14,0.16,0.21c0.02,0.03,0.04,0.06,0.07,0.09c0.55,0.75,1.65,2.45,1.67,4.06v0.18l-0.3,20.17
		c0.03,0.8,0.02,1.59-0.04,2.36v0.06h-0.01c-0.76,10.01-8.78,18.19-19.09,18.86c-11.28,0.73-21.03-7.82-21.77-19.11l-4.35-67.08
		c-1.63-25.14,11.66-47.62,31.94-57.92c8.18-4.44,17.79-7.32,28.21-7.99c11.08-0.72,22.33,1.51,32.33,6.32
		c8.5,4.09,15.74,10.22,21.18,17.57C304.46,381.25,308.47,397.1,304.57,412.31z"/>
</g>
</svg>
